HIERARCHY
ROOT hip
{
	OFFSET 0.000000 0.000000 0.000000 
	CHANNELS 6 Xposition Yposition Zposition Zrotation Xrotation Yrotation
	JOINT abdomen
	{
		OFFSET 0.000000 3.402643 0.000000 
		CHANNELS 3 Zrotation Xrotation Yrotation
		JOINT chest
		{
			OFFSET 0.000000 8.438565 -0.680529 
			CHANNELS 3 Zrotation Xrotation Yrotation
			JOINT neck
			{
				OFFSET 0.000000 10.207942 -0.272212 
				CHANNELS 3 Zrotation Xrotation Yrotation
				JOINT head
				{
					OFFSET 0.000000 3.130431 0.000000 
					CHANNELS 3 Zrotation Xrotation Yrotation
					End Site
					{
						OFFSET 0.000000 3.130435 0.000000 
					}
				}
			}
			JOINT lCollar
			{
				OFFSET 3.470700 6.669187 -0.816635 
				CHANNELS 3 Zrotation Yrotation Xrotation
				JOINT lShldr
				{
					OFFSET 3.198488 0.000000 0.000000 
					CHANNELS 3 Zrotation Yrotation Xrotation
					JOINT lForeArm
					{
						OFFSET 10.139888 0.000000 0.000000 
						CHANNELS 3 Zrotation Yrotation Xrotation
						JOINT lHand
						{
							OFFSET 8.370511 0.000000 0.000000 
							CHANNELS 3 Zrotation Yrotation Xrotation
							End Site
							{
								OFFSET 4.083176 0.000000 0.000000 
							}
						}
					}
				}
			}
			JOINT rCollar
			{
				OFFSET -3.470700 6.669187 -0.816635 
				CHANNELS 3 Zrotation Yrotation Xrotation
				JOINT rShldr
				{
					OFFSET -3.198488 0.000000 0.000000 
					CHANNELS 3 Zrotation Yrotation Xrotation
					JOINT rForeArm
					{
						OFFSET -10.139888 0.000000 0.000000 
						CHANNELS 3 Zrotation Yrotation Xrotation
						JOINT rHand
						{
							OFFSET -8.370511 0.000000 0.000000 
							CHANNELS 3 Zrotation Yrotation Xrotation
							End Site
							{
								OFFSET -4.083176 0.000000 0.000000 
							}
						}
					}
				}
			}
		}
	}
	JOINT lThigh
	{
		OFFSET 5.308129 -1.633274 1.361059 
		CHANNELS 3 Zrotation Xrotation Yrotation
		JOINT lShin
		{
			OFFSET -2.041588 -20.007561 0.000000 
			CHANNELS 3 Zrotation Xrotation Yrotation
			JOINT lFoot
			{
				OFFSET 0.000000 -19.190928 -1.224953 
				CHANNELS 3 Zrotation Xrotation Yrotation
				JOINT lToes
				{
					OFFSET 0.000000 -2.449906 4.627600 
					CHANNELS 3 Zrotation Xrotation Yrotation
					End Site
					{
						OFFSET 0.000000 0.000000 0.000000 
					}
				}
			}
		}
	}
	JOINT rThigh
	{
		OFFSET -5.308129 -1.633274 1.361059 
		CHANNELS 3 Zrotation Xrotation Yrotation
		JOINT rShin
		{
			OFFSET 2.041588 -20.007561 0.000000 
			CHANNELS 3 Zrotation Xrotation Yrotation
			JOINT rFoot
			{
				OFFSET 0.000000 -19.190928 -1.224953 
				CHANNELS 3 Zrotation Xrotation Yrotation
				JOINT rToes
				{
					OFFSET 0.000000 -2.449906 4.627600 
					CHANNELS 3 Zrotation Xrotation Yrotation
					End Site
					{
						OFFSET 0.000000 0.000000 0.000000 
					}
				}
			}
		}
	}
}
MOTION
Frames: 16
Frame Time: 0.016667
0.155607 51.339600 0.535879 5.492400 3.683613 -1.078130 2.354970 -1.195780 0.609213 -2.074800 0.681672 1.124140 0.990110 12.179400 -2.704820 0.000000 0.000000 0.000000 -19.100000 0.000000 0.000000 -41.528397 -30.180201 -170.770004 0.000000 28.623899 -0.000000 -83.809898 41.234402 -178.811005 19.100000 0.000000 0.000000 46.209099 29.335199 -166.751007 0.000000 -33.912800 0.000000 93.514503 -32.975899 -175.914993 -2.573410 10.725600 -1.755960 0.000000 -0.081860 0.000000 3.166680 -13.133500 13.684500 0.000000 -15.935900 0.000000 -12.213400 9.345470 -3.672160 0.000000 1.754740 0.000000 -0.227936 -15.101000 -0.874862 0.000000 7.719140 0.000000 
0.115848 51.345303 0.482318 5.285580 3.795398 -1.270210 2.327290 -1.261680 0.677688 -1.984700 0.597969 1.258000 0.927783 12.314000 -2.401450 0.000000 0.000000 0.000000 -19.100000 0.000000 0.000000 -40.102398 -32.143501 -170.516006 0.000000 29.516199 -0.000000 -83.859200 40.708199 -178.886002 19.100000 0.000000 0.000000 45.371498 31.061199 -167.296005 0.000000 -34.197399 0.000000 93.488602 -32.315102 -175.867004 -2.151200 10.460600 -1.211550 0.000000 0.084028 0.000000 3.047380 -12.988700 13.325700 0.000000 -16.798401 0.000000 -11.793600 8.994720 -3.142540 0.000000 1.907470 0.000000 -0.329831 -15.190100 -1.258600 0.000000 8.158800 0.000000 
0.098832 51.372459 0.474836 5.214820 3.731812 -1.363490 2.270950 -1.207300 0.696403 -1.947540 0.608157 1.302410 0.499111 12.479300 -1.939370 0.000000 0.000000 0.000000 -19.100000 0.000000 0.000000 -38.579697 -33.740402 -170.339996 0.000000 30.671801 -0.000000 -83.873596 40.551998 -178.908005 19.100000 0.000000 0.000000 44.498100 32.809601 -167.884995 0.000000 -34.580299 0.000000 93.462502 -31.629101 -175.817993 -2.104550 10.629800 -1.622940 0.000000 -0.126762 0.000000 3.147260 -12.987800 13.747800 0.000000 -16.734301 0.000000 -11.615800 8.981370 -3.009760 0.000000 1.906520 0.000000 -0.407834 -15.075100 -1.567710 0.000000 5.796830 0.000000 
0.061862 51.400841 0.384450 5.241140 3.742061 -1.090240 2.245920 -1.431590 0.663733 -1.974210 0.542907 1.218350 0.096876 12.747100 -1.579810 0.000000 0.000000 0.000000 -19.100000 0.000000 0.000000 -37.140099 -35.640701 -170.714005 0.000000 31.544500 -0.000000 -83.902603 40.233700 -178.953003 19.100000 0.000000 0.000000 43.761696 34.604202 -168.582001 0.000000 -34.844601 0.000000 93.460403 -31.571899 -175.813995 -1.942710 10.250900 -1.038280 0.000000 0.338462 0.000000 2.945430 -12.849700 13.026600 0.000000 -18.276800 0.000000 -11.484800 8.852300 -2.870040 0.000000 2.012740 0.000000 -0.567623 -15.266500 -2.154780 0.000000 6.442380 0.000000 
0.096536 51.419849 0.457951 5.217140 3.643385 -1.816300 2.082460 -1.023180 0.837114 -1.997430 0.675946 1.601290 -0.045193 12.977300 -1.232000 0.000000 0.000000 0.000000 -19.100000 0.000000 0.000000 -35.619099 -37.483398 -170.597000 0.000000 32.347099 -0.000000 -83.956802 39.625599 -179.037003 19.100000 0.000000 0.000000 42.753197 36.387699 -169.158997 0.000000 -35.082199 0.000000 93.459602 -31.549101 -175.811996 -2.133300 10.782200 -1.288540 0.000000 -0.226517 0.000000 3.193880 -12.919200 14.013900 0.000000 -17.089899 0.000000 -11.591200 8.672310 -2.946080 0.000000 2.320930 0.000000 -0.395620 -15.255200 -1.503260 0.000000 6.446290 0.000000 
0.069276 51.452435 0.422448 4.995500 3.431690 -1.892350 2.104680 -1.105420 0.882086 -1.871400 0.712925 1.691540 -0.153583 13.035400 -0.971318 0.000000 0.000000 0.000000 -19.100000 0.000000 0.000000 -34.092999 -39.169601 -170.214996 0.000000 33.654800 -0.000000 -84.089699 38.048401 -179.248993 19.100000 0.000000 0.000000 41.628799 38.100502 -169.841003 0.000000 -35.437099 0.000000 93.450798 -31.311701 -175.794998 -1.868830 10.968300 -1.358230 0.000000 -0.206602 0.000000 3.243130 -12.887900 14.254300 0.000000 -17.423000 0.000000 -11.111200 8.784890 -2.210240 0.000000 2.345420 0.000000 -0.586125 -15.314200 -2.218200 0.000000 6.749280 0.000000 
0.059924 51.457870 0.414938 5.174870 3.303140 -1.926080 2.215110 -1.040620 0.848332 -1.863180 0.764071 1.628440 -0.349491 13.203600 -0.639065 0.000000 0.000000 0.000000 -19.100000 0.000000 0.000000 -32.559296 -40.583801 -170.977997 0.000000 34.375801 -0.000000 -84.123802 37.622799 -179.304993 19.100000 0.000000 0.000000 40.554100 40.034401 -169.815002 0.000000 -35.727402 0.000000 93.431396 -30.775400 -175.757996 -2.245670 11.340800 -2.304150 0.000000 -0.647099 0.000000 3.462590 -12.904500 15.159600 0.000000 -16.797400 0.000000 -11.548300 8.756220 -3.132250 0.000000 2.605110 0.000000 -0.298997 -15.080500 -1.149070 0.000000 7.286260 0.000000 
0.042477 51.452168 0.397198 5.467760 3.333930 -1.821770 2.236000 -0.933021 0.818271 -1.956390 0.797024 1.573070 -0.358797 13.236600 -0.411904 0.000000 0.000000 0.000000 -19.100000 0.000000 0.000000 -30.834898 -42.193401 -171.837997 0.000000 35.300598 -0.000000 -84.127296 37.578701 -179.309998 19.100000 0.000000 0.000000 39.483898 41.931198 -170.251999 0.000000 -35.987701 0.000000 93.429199 -30.713900 -175.753006 -2.545450 11.222600 -2.187590 0.000000 -0.618604 0.000000 3.400370 -12.780900 15.034000 0.000000 -17.103399 0.000000 -11.901200 8.701070 -3.105800 0.000000 2.634260 0.000000 -0.328801 -15.102000 -1.261820 0.000000 7.448040 0.000000 
0.013774 51.455700 0.379201 5.565280 3.220930 -1.689010 2.414390 -0.970770 0.730315 -1.891190 0.805917 1.394110 -0.471350 13.465100 -0.103748 0.000000 0.000000 0.000000 -19.100000 0.000000 0.000000 -29.259699 -43.632301 -172.983994 0.000000 35.867401 -0.000000 -84.171402 37.013802 -179.382996 19.100000 0.000000 0.000000 38.327698 43.794102 -170.283005 0.000000 -36.375198 0.000000 93.417297 -30.375601 -175.729996 -2.590290 11.326600 -2.170150 0.000000 -0.652236 0.000000 3.395120 -12.935300 14.843400 0.000000 -16.152300 0.000000 -11.930100 8.878910 -2.833060 0.000000 2.518500 0.000000 -0.452053 -15.147300 -1.729510 0.000000 7.237670 0.000000 
0.010087 51.432480 0.378005 5.329310 3.211460 -1.538630 2.317820 -0.920210 0.677853 -1.824240 0.810537 1.295890 -0.715331 13.540700 0.093675 0.000000 0.000000 0.000000 -19.100000 0.000000 0.000000 -27.203999 -45.271900 -173.139008 0.000000 36.443699 -0.000000 -84.273201 35.645901 -179.554993 19.100000 0.000000 0.000000 37.230999 45.553101 -170.623993 0.000000 -36.612801 0.000000 93.422897 -30.534000 -175.740997 -2.159820 11.264300 -1.468370 0.000000 -0.515895 0.000000 3.159010 -12.728100 14.063100 0.000000 -17.464100 0.000000 -11.615500 8.975650 -2.911310 0.000000 2.436990 0.000000 -0.476886 -15.177100 -1.820970 0.000000 7.176880 0.000000 
0.000092 51.429764 0.367788 5.137120 3.162390 -1.402450 2.352020 -0.887143 0.647003 -1.682100 0.817909 1.240480 -0.638111 13.558100 0.288016 0.000000 0.000000 0.000000 -19.100000 0.000000 0.000000 -25.654797 -47.099201 -173.675995 0.000000 36.585300 -0.000000 -84.309196 35.138599 -179.617004 19.100000 0.000000 0.000000 35.665699 47.030701 -170.858002 0.000000 -37.245300 0.000000 93.410103 -30.170300 -175.716003 -1.887440 11.306500 -1.509240 0.000000 -0.512735 0.000000 3.088880 -12.599800 13.894900 0.000000 -17.813299 0.000000 -11.243000 9.124640 -2.466140 0.000000 2.341420 0.000000 -0.591948 -15.355400 -2.234360 0.000000 7.376980 0.000000 
-0.005073 51.404778 0.342456 4.834490 3.412400 -1.450160 2.283900 -0.769555 0.652505 -1.568140 0.776104 1.261800 -0.769895 13.770900 0.439900 0.000000 0.000000 0.000000 -19.100000 0.000000 0.000000 -23.940098 -48.642799 -174.707001 0.000000 37.196602 -0.000000 -84.336098 34.751900 -179.664001 19.100000 0.000000 0.000000 34.169498 48.658100 -171.274002 0.000000 -37.631599 0.000000 93.402199 -29.940300 -175.699997 -1.599300 11.197300 -2.270870 0.000000 -0.907206 0.000000 3.238780 -12.513400 14.637100 0.000000 -17.176701 0.000000 -10.918500 8.751280 -2.684310 0.000000 2.465830 0.000000 -0.522575 -15.305500 -1.978980 0.000000 7.808280 0.000000 
-0.009626 51.418896 0.335234 4.754070 3.290340 -1.443840 2.102760 -0.705808 0.681293 -1.641260 0.873101 1.326130 -1.070890 13.914200 0.549410 0.000000 0.000000 0.000000 -19.100000 0.000000 0.000000 -22.118500 -50.278099 -175.774002 0.000000 37.543201 -0.000000 -84.343498 34.643600 -179.677002 19.100000 0.000000 0.000000 32.742599 50.201401 -171.906998 0.000000 -38.097900 0.000000 93.389801 -29.575800 -175.675003 -1.365100 11.137000 -1.421360 0.000000 -0.556337 0.000000 3.028790 -12.404100 13.837800 0.000000 -17.445400 0.000000 -10.848100 8.904980 -2.856600 0.000000 2.460030 0.000000 -0.447027 -15.320600 -1.691420 0.000000 7.745940 0.000000 
-0.019960 51.405052 0.331053 4.676520 3.421280 -1.465440 2.057850 -0.700699 0.704638 -1.624050 0.813031 1.372180 -1.004090 13.889700 0.644826 0.000000 0.000000 0.000000 -19.100000 0.000000 0.000000 -20.391598 -51.616699 -176.802002 0.000000 37.968399 -0.000000 -84.375900 34.164600 -179.733994 19.100000 0.000000 0.000000 31.193499 51.623001 -172.395996 0.000000 -38.431000 0.000000 93.385002 -29.430700 -175.664993 -1.341760 11.100400 -1.948250 0.000000 -0.774566 0.000000 3.170810 -12.480900 14.377300 0.000000 -18.009399 0.000000 -10.711000 8.766150 -2.804780 0.000000 2.404060 0.000000 -0.484630 -15.305700 -1.835350 0.000000 7.628030 0.000000 
-0.022217 51.411972 0.325027 4.734470 3.348630 -1.560550 1.969680 -0.679590 0.744739 -1.696150 0.864244 1.454190 -1.004290 13.972800 0.737025 0.000000 0.000000 0.000000 -19.100000 0.000000 0.000000 -18.690197 -52.959000 -178.100998 0.000000 38.353901 -0.000000 -84.390602 33.943298 -179.761002 19.100000 0.000000 0.000000 29.745298 52.957298 -173.074997 0.000000 -38.872501 0.000000 93.386002 -29.461300 -175.667007 -1.434670 11.177500 -1.894270 0.000000 -0.730118 0.000000 3.241730 -12.709100 14.437300 0.000000 -16.658199 0.000000 -10.798800 8.796720 -2.864260 0.000000 2.453900 0.000000 -0.447125 -15.253300 -1.699070 0.000000 7.043340 0.000000 
-0.021037 51.408310 0.309627 4.856690 3.407150 -1.677030 2.000900 -0.612827 0.775843 -1.728750 0.886299 1.520310 -1.217830 14.053900 0.833637 0.000000 0.000000 0.000000 -19.100000 0.000000 0.000000 -16.874599 -54.172001 -179.389999 0.000000 38.725899 -0.000000 -84.414497 33.579700 -179.804001 19.100000 0.000000 0.000000 28.716599 54.652401 -174.998993 0.000000 -38.832699 0.000000 93.477600 -32.028801 -175.845993 -1.556100 11.048200 -1.567740 0.000000 -0.667870 0.000000 3.130520 -12.521800 14.157900 0.000000 -17.299000 0.000000 -10.969600 8.611540 -3.048400 0.000000 2.562540 0.000000 -0.388591 -15.200900 -1.481710 0.000000 6.834230 0.000000 
